<svg xmlns="http://www.w3.org/2000/svg" width="690" height="210" viewBox="0 0 690 210"><defs><linearGradient id="a" x1="50%" x2="50%" y1="0%" y2="58.477%"><stop offset="0%"/><stop offset="100%" stop-color="#3E4346"/></linearGradient></defs><g fill="none" fill-rule="evenodd"><path fill="#3E4346" d="M309.555 146.118c-25.772 0-53.495-16.667-53.495-53.196v-72.36h35.177v70.236c0 13.108 9.42 20.162 18.258 20.162 8.855 0 18.3-7.054 18.3-20.162V20.563h35.203v72.359c0 36.529-27.717 53.196-53.443 53.196m212.244-3.491V71.454c0-12.097-8.921-18.624-17.311-18.624-8.388 0-17.295 6.6-17.295 18.844v70.953h-33.266V71.674c0-12.245-8.867-18.844-17.204-18.844-8.336 0-17.19 6.527-17.19 18.624v71.173h-34.764V69.318c0-46.606 36.41-51.637 52.06-51.637 7.58 0 18.504 1.886 27.49 10.88l6.599 6.57 6.332-6.817c5.974-6.465 15.969-10.439 26.774-10.633 12.238 0 52.54 3.73 52.54 51.637v73.31H521.8z"/><path fill="url(#a)" d="M119.11 113.829c7.512-1.661 14.375-8.064 14.375-18.657V0h34.712v97.169c0 31.896-24.743 47.457-49.088 49.142v-32.482z"/><path fill="#3E4346" d="M640.161 97.168V0h34.7v95.171c0 10.593 6.835 16.996 14.375 18.657l-.013 32.483c-24.32-1.686-49.062-17.247-49.062-49.143"/><path fill="#FFD300" d="M616.683 0h-34.978v67.382l34.978-41.523z"/><path fill="#3E4346" d="M581.705 92.874v49.754h34.778V51.57zm-393.622 4.294V0h34.685v95.171c0 10.593 6.857 16.996 14.403 18.657l-.04 32.483c-24.311-1.686-49.048-17.247-49.048-49.143M0 142.792L120.265 0h47.933L47.893 142.792zm23.248 48.136c0 5.904-3.552 9.072-9.984 9.072H1.216v-31.248h12.288c5.088 0 8.304 2.736 8.304 7.584 0 2.64-1.584 5.76-4.992 6.72v.096c3.936.672 6.432 3.984 6.432 7.776zM13.6 170.912H3.52v11.232h9.696c3.936 0 6.288-2.592 6.288-5.664 0-3.312-1.92-5.568-5.904-5.568zm-.336 13.344H3.52v13.584h9.984c4.896 0 7.392-2.64 7.392-6.816 0-4.272-3.36-6.768-7.632-6.768zm20.266 6.96c0 6.48 2.64 9.312 7.872 9.312 2.352 0 5.424-1.2 7.2-4.56h.096V200h2.208v-23.472h-2.208v14.064c0 .816-.096 1.584-.336 2.352-.816 3.024-3.216 5.616-6.432 5.616-4.224 0-6.144-2.304-6.144-7.824v-14.208H33.53v14.688zm32.074-21.264c0-.816-.72-1.488-1.584-1.488-.816 0-1.488.672-1.488 1.488 0 .864.672 1.584 1.536 1.584.816 0 1.536-.72 1.536-1.584zM65.172 200v-23.472h-2.208V200h2.208zm14.938 0v-32.736l-2.16 1.008V200h2.16zm29.386 0h-2.208v-2.592h-.048c-2.736 2.832-5.424 3.072-7.536 3.072-4.128 0-8.64-3.696-8.64-11.904 0-9.168 5.088-12.384 9.648-12.384 1.92 0 3.936.48 6.528 2.88h.048V168.32l2.208-1.008V200zm-2.16-4.992v-13.296c-1.44-1.92-4.032-3.6-6.48-3.6-4.8 0-7.584 4.128-7.584 10.512 0 5.808 2.928 9.984 7.008 9.984 2.832 0 5.52-1.632 7.056-3.6zm16.81-25.056c0-.816-.72-1.488-1.584-1.488-.816 0-1.488.672-1.488 1.488 0 .864.672 1.584 1.536 1.584.816 0 1.536-.72 1.536-1.584zM123.714 200v-23.472h-2.208V200h2.208zm29.578-14.4c0-6.432-2.736-9.408-8.016-9.408-2.352 0-5.52 1.2-7.296 4.56l-.096-.048v-4.176h-2.208V200h2.208v-13.92c0-.72.096-1.536.288-2.208.768-3.072 3.312-5.712 6.576-5.712 4.224 0 6.288 2.4 6.288 7.776V200h2.256v-14.4zm28.378 13.056c0 5.28-2.592 9.12-8.688 11.088l-.768-1.872c5.808-2.112 7.248-5.328 7.248-8.496v-2.208h-.048c-2.976 2.736-5.616 3.216-7.392 3.216-4.56 0-8.784-3.024-8.784-12.192 0-8.16 4.704-12 8.928-12 2.016 0 4.608.288 7.2 3.072h.048v-2.688h2.256v22.08zm-9.168-.144c2.64 0 5.52-1.92 6.96-3.792v-12.96c-1.488-1.968-4.128-3.696-6.912-3.696-4.032 0-7.104 4.272-7.104 9.936 0 6.48 2.208 10.512 7.056 10.512zm44.66-22.32c5.952 0 9.408 4.704 9.408 11.664v1.296h-16.704c.192 6.24 3.552 9.408 7.632 9.408 2.064 0 4.08-.864 5.76-2.352l1.296 1.44c-2.112 1.92-4.512 2.832-7.344 2.832-4.944 0-9.552-3.84-9.552-12.096 0-7.536 4.128-12.192 9.504-12.192zm7.248 11.184c-.048-4.992-2.208-9.264-7.344-9.264-3.936 0-6.912 3.792-7.2 9.264h14.544zM251.684 200l-7.152-12.192 6.672-11.232h-2.448l-5.424 9.36-5.424-9.36h-2.448l6.624 11.376L234.932 200h2.448l5.904-10.176 5.76 10.176h2.64zm18.346-23.808c-5.136 0-9.456 4.128-9.456 12.144s4.32 12.144 9.36 12.144c3.36 0 5.472-1.152 7.2-3.024l-1.44-1.392c-1.872 1.68-3.408 2.4-5.616 2.4-4.56 0-7.248-4.368-7.248-10.128 0-5.568 2.64-10.176 7.056-10.176 2.016 0 3.936.624 5.76 2.352l1.488-1.536c-2.016-1.968-4.224-2.784-7.104-2.784zm25.69 0c5.952 0 9.408 4.704 9.408 11.664v1.296h-16.704c.192 6.24 3.552 9.408 7.632 9.408 2.064 0 4.08-.864 5.76-2.352l1.296 1.44c-2.112 1.92-4.512 2.832-7.344 2.832-4.944 0-9.552-3.84-9.552-12.096 0-7.536 4.128-12.192 9.504-12.192zm7.248 11.184c-.048-4.992-2.208-9.264-7.344-9.264-3.936 0-6.912 3.792-7.2 9.264h14.544zM317.81 200v-32.736l-2.16 1.008V200h2.16zm14.314 0v-32.736l-2.16 1.008V200h2.16zm20.458-23.808c5.952 0 9.408 4.704 9.408 11.664v1.296h-16.704c.192 6.24 3.552 9.408 7.632 9.408 2.064 0 4.08-.864 5.76-2.352l1.296 1.44c-2.112 1.92-4.512 2.832-7.344 2.832-4.944 0-9.552-3.84-9.552-12.096 0-7.536 4.128-12.192 9.504-12.192zm7.248 11.184c-.048-4.992-2.208-9.264-7.344-9.264-3.936 0-6.912 3.792-7.2 9.264h14.544zm29.482-1.776c0-6.432-2.736-9.408-8.016-9.408-2.352 0-5.52 1.2-7.296 4.56l-.096-.048v-4.176h-2.208V200h2.208v-13.92c0-.72.096-1.536.288-2.208.768-3.072 3.312-5.712 6.576-5.712 4.224 0 6.288 2.4 6.288 7.776V200h2.256v-14.4zm19.402-9.408c-5.136 0-9.456 4.128-9.456 12.144s4.32 12.144 9.36 12.144c3.36 0 5.472-1.152 7.2-3.024l-1.44-1.392c-1.872 1.68-3.408 2.4-5.616 2.4-4.56 0-7.248-4.368-7.248-10.128 0-5.568 2.64-10.176 7.056-10.176 2.016 0 3.936.624 5.76 2.352l1.488-1.536c-2.016-1.968-4.224-2.784-7.104-2.784zm25.69 0c5.952 0 9.408 4.704 9.408 11.664v1.296h-16.704c.192 6.24 3.552 9.408 7.632 9.408 2.064 0 4.08-.864 5.76-2.352l1.296 1.44c-2.112 1.92-4.512 2.832-7.344 2.832-4.944 0-9.552-3.84-9.552-12.096 0-7.536 4.128-12.192 9.504-12.192zm7.248 11.184c-.048-4.992-2.208-9.264-7.344-9.264-3.936 0-6.912 3.792-7.2 9.264h14.544zm36.74-11.184c5.952 0 9.408 4.704 9.408 11.664v1.296h-16.704c.192 6.24 3.552 9.408 7.632 9.408 2.064 0 4.08-.864 5.76-2.352l1.296 1.44c-2.112 1.92-4.512 2.832-7.344 2.832-4.944 0-9.552-3.84-9.552-12.096 0-7.536 4.128-12.192 9.504-12.192zm7.248 11.184c-.048-4.992-2.208-9.264-7.344-9.264-3.936 0-6.912 3.792-7.2 9.264h14.544zM506.53 200c2.784-7.824 5.568-15.6 8.4-23.424h-2.304l-4.848 13.968-2.304 6.72h-.096l-2.352-6.72c-1.68-4.656-3.312-9.264-4.944-13.968h-2.352L504.274 200h2.256zm25.546-23.808c5.952 0 9.408 4.704 9.408 11.664v1.296H524.78c.192 6.24 3.552 9.408 7.632 9.408 2.064 0 4.08-.864 5.76-2.352l1.296 1.44c-2.112 1.92-4.512 2.832-7.344 2.832-4.944 0-9.552-3.84-9.552-12.096 0-7.536 4.128-12.192 9.504-12.192zm7.248 11.184c-.048-4.992-2.208-9.264-7.344-9.264-3.936 0-6.912 3.792-7.2 9.264h14.544zm14.938-7.008l.048-3.792h-2.256V200h2.256v-14.016c0-4.224 2.352-7.488 6.768-7.488.816 0 1.632.096 2.544.288l.48-2.208c-.912-.288-1.824-.384-2.736-.384-2.832 0-5.712 1.296-7.008 4.224l-.096-.048zm24.25 28.416c3.888-10.56 7.872-21.6 11.76-32.208h-2.256l-4.656 12.864-2.832 8.016h-.048c-.96-2.688-1.872-5.376-2.784-8.016l-4.608-12.864h-2.304c2.88 7.968 5.76 15.84 8.688 23.712l-3.072 8.496h2.112zM633.06 200h-2.208v-2.592h-.048c-2.736 2.832-5.424 3.072-7.536 3.072-4.128 0-8.64-3.696-8.64-11.904 0-9.168 5.088-12.384 9.648-12.384 1.92 0 3.936.48 6.528 2.88h.048V168.32l2.208-1.008V200zm-2.16-4.992v-13.296c-1.44-1.92-4.032-3.6-6.48-3.6-4.8 0-7.584 4.128-7.584 10.512 0 5.808 2.928 9.984 7.008 9.984 2.832 0 5.52-1.632 7.056-3.6zM658.462 200v-2.736h-.048c-3.024 2.88-5.76 3.168-8.016 3.168-3.648 0-7.584-1.968-7.584-7.152 0-4.272 3.168-7.44 8.592-7.44 2.016 0 4.464.336 7.056 1.872v-3.744c0-4.176-2.208-5.808-6.192-5.808-2.256 0-4.32.624-6.192 1.488l-.768-1.872c2.16-.96 4.368-1.584 7.248-1.584 5.184 0 8.112 2.448 8.112 7.296V200h-2.208zm0-10.368c-2.304-1.248-4.224-2.016-7.152-2.016-3.552 0-6.336 1.968-6.336 5.568 0 3.552 2.256 5.472 6.096 5.472 3.12-.144 5.472-1.68 7.392-3.648v-5.376zm18.97 19.152c3.888-10.56 7.872-21.6 11.76-32.208h-2.256l-4.656 12.864-2.832 8.016h-.048c-.96-2.688-1.872-5.376-2.784-8.016l-4.608-12.864h-2.304c2.88 7.968 5.76 15.84 8.688 23.712l-3.072 8.496h2.112z"/></g></svg>